<?xml version="1.0" ?><svg enable-background="new 0 0 52 52" id="Layer_1" version="1.1" viewBox="0 0 52 52" xml:space="preserve" xmlns="http://www.w3.org/2000/svg" xmlns:xlink="http://www.w3.org/1999/xlink"><g><g><g><path d="M26,2C12.7700195,2,2,12.7600098,2,26c0,13.2300415,10.7700195,24,24,24     c13.2399902,0,24-10.7699585,24-24C50,12.7600098,39.2399902,2,26,2z M26,48C13.8699951,48,4,38.1300049,4,26     C4,13.8599854,13.8699951,4,26,4c12.1400146,0,22,9.8599854,22,22C48,38.1300049,38.1400146,48,26,48z" fill="#0096E6"/></g></g><g><g><path d="M20.7263794,42.1564331C11.8162231,39.2457886,6.9343872,29.6290894,9.8440552,20.7184448     l1.9013672,0.6210938c-2.5678711,7.8618164,1.7397461,16.3476563,9.6020508,18.9155273L20.7263794,42.1564331z" fill="#0096E6"/></g></g><g><g><path d="M42.1643677,31.2736206l-1.9013672-0.6210938     c1.2416992-3.8017578,0.9257813-7.8657227-0.8901367-11.4428711c-1.815918-3.5766602-4.909668-6.2304688-8.7119141-7.472168     l0.6210938-1.9013672C40.192688,12.7462769,45.0745239,22.3629761,42.1643677,31.2736206z" fill="#0096E6"/></g></g><g><g><path d="M26,20c-3.2999878,0-6,2.6900024-6,6c0,3.2999878,2.7000122,6,6,6c3.3099976,0,6-2.7000122,6-6     C32,22.6900024,29.3099976,20,26,20z M26,30c-2.2000122,0-4-1.7999878-4-4c0-2.2099609,1.7999878-4,4-4     c2.210022,0,4,1.7900391,4,4C30,28.2000122,28.210022,30,26,30z" fill="#0096E6"/></g><g><path d="M30,26c0,2.2000122-1.789978,4-4,4c-2.2000122,0-4-1.7999878-4-4c0-2.2099609,1.7999878-4,4-4     C28.210022,22,30,23.7900391,30,26z" fill="#D0E8F9"/></g></g></g></svg>