<?xml version="1.0" ?>
<svg enable-background="new 0 0 224 224" id="wunderlist" height="100px" width="100px" version="1.1" viewBox="0 0 224 224" xml:space="preserve" xmlns="http://www.w3.org/2000/svg" xmlns:xlink="http://www.w3.org/1999/xlink">
<g>
<path d="M20,8h-4V4c0-2.209-1.7891-4-4-4S8,1.791,8,4v4H4c-2.2109,0-4,1.791-4,4s1.7891,4,4,4h4v4   c0,2.209,1.7891,4,4,4s4-1.791,4-4v-4h4c2.2109,0,4-1.791,4-4S22.2109,8,20,8z" fill="#FAE6F5"/><path d="M60,8h-4V4c0-2.209-1.7891-4-4-4s-4,1.791-4,4v4h-4c-2.2109,0-4,1.791-4,4s1.7891,4,4,4h4v4   c0,2.209,1.7891,4,4,4s4-1.791,4-4v-4h4c2.2109,0,4-1.791,4-4S62.2109,8,60,8z" fill="#FAE6F5"/><path d="M100,8h-4V4c0-2.209-1.7891-4-4-4s-4,1.791-4,4v4h-4c-2.2109,0-4,1.791-4,4s1.7891,4,4,4h4v4   c0,2.209,1.7891,4,4,4s4-1.791,4-4v-4h4c2.2109,0,4-1.791,4-4S102.2109,8,100,8z" fill="#FAE6F5"/><path d="M140,8h-4V4c0-2.209-1.7891-4-4-4s-4,1.791-4,4v4h-4c-2.2109,0-4,1.791-4,4s1.7891,4,4,4h4v4   c0,2.209,1.7891,4,4,4s4-1.791,4-4v-4h4c2.2109,0,4-1.791,4-4S142.2109,8,140,8z" fill="#FAE6F5"/><path d="M180,8h-4V4c0-2.209-1.7891-4-4-4s-4,1.791-4,4v4h-4c-2.2109,0-4,1.791-4,4s1.7891,4,4,4h4v4   c0,2.209,1.7891,4,4,4s4-1.791,4-4v-4h4c2.2109,0,4-1.791,4-4S182.2109,8,180,8z" fill="#FAE6F5"/><path d="M204,16h4v4c0,2.209,1.7891,4,4,4s4-1.791,4-4v-4h4c2.2109,0,4-1.791,4-4s-1.7891-4-4-4h-4V4   c0-2.209-1.7891-4-4-4s-4,1.791-4,4v4h-4c-2.2109,0-4,1.791-4,4S201.7891,16,204,16z" fill="#FAE6F5"/><path d="M20,48h-4v-4c0-2.209-1.7891-4-4-4s-4,1.791-4,4v4H4c-2.2109,0-4,1.791-4,4s1.7891,4,4,4h4v4   c0,2.209,1.7891,4,4,4s4-1.791,4-4v-4h4c2.2109,0,4-1.791,4-4S22.2109,48,20,48z" fill="#FAE6F5"/><path d="M60,48h-4v-4c0-2.209-1.7891-4-4-4s-4,1.791-4,4v4h-4c-2.2109,0-4,1.791-4,4s1.7891,4,4,4h4v4   c0,2.209,1.7891,4,4,4s4-1.791,4-4v-4h4c2.2109,0,4-1.791,4-4S62.2109,48,60,48z" fill="#FAE6F5"/><path d="M100,48h-4v-4c0-2.209-1.7891-4-4-4s-4,1.791-4,4v4h-4c-2.2109,0-4,1.791-4,4s1.7891,4,4,4h4v4   c0,2.209,1.7891,4,4,4s4-1.791,4-4v-4h4c2.2109,0,4-1.791,4-4S102.2109,48,100,48z" fill="#FAE6F5"/><path d="M140,48h-4v-4c0-2.209-1.7891-4-4-4s-4,1.791-4,4v4h-4c-2.2109,0-4,1.791-4,4s1.7891,4,4,4h4v4   c0,2.209,1.7891,4,4,4s4-1.791,4-4v-4h4c2.2109,0,4-1.791,4-4S142.2109,48,140,48z" fill="#FAE6F5"/><path d="M180,48h-4v-4c0-2.209-1.7891-4-4-4s-4,1.791-4,4v4h-4c-2.2109,0-4,1.791-4,4s1.7891,4,4,4h4v4   c0,2.209,1.7891,4,4,4s4-1.791,4-4v-4h4c2.2109,0,4-1.791,4-4S182.2109,48,180,48z" fill="#FAE6F5"/><path d="M220,48h-4v-4c0-2.209-1.7891-4-4-4s-4,1.791-4,4v4h-4c-2.2109,0-4,1.791-4,4s1.7891,4,4,4h4v4   c0,2.209,1.7891,4,4,4s4-1.791,4-4v-4h4c2.2109,0,4-1.791,4-4S222.2109,48,220,48z" fill="#FAE6F5"/><path d="M20,88h-4v-4c0-2.209-1.7891-4-4-4s-4,1.791-4,4v4H4c-2.2109,0-4,1.791-4,4s1.7891,4,4,4h4v4   c0,2.209,1.7891,4,4,4s4-1.791,4-4v-4h4c2.2109,0,4-1.791,4-4S22.2109,88,20,88z" fill="#FAE6F5"/><path d="M60,88h-4v-4c0-2.209-1.7891-4-4-4s-4,1.791-4,4v4h-4c-2.2109,0-4,1.791-4,4s1.7891,4,4,4h4v4   c0,2.209,1.7891,4,4,4s4-1.791,4-4v-4h4c2.2109,0,4-1.791,4-4S62.2109,88,60,88z" fill="#FAE6F5"/><path d="M100,88h-4v-4c0-2.209-1.7891-4-4-4s-4,1.791-4,4v4h-4c-2.2109,0-4,1.791-4,4s1.7891,4,4,4h4v4   c0,2.209,1.7891,4,4,4s4-1.791,4-4v-4h4c2.2109,0,4-1.791,4-4S102.2109,88,100,88z" fill="#FAE6F5"/><path d="M140,88h-4v-4c0-2.209-1.7891-4-4-4s-4,1.791-4,4v4h-4c-2.2109,0-4,1.791-4,4s1.7891,4,4,4h4v4   c0,2.209,1.7891,4,4,4s4-1.791,4-4v-4h4c2.2109,0,4-1.791,4-4S142.2109,88,140,88z" fill="#FAE6F5"/><path d="M180,88h-4v-4c0-2.209-1.7891-4-4-4s-4,1.791-4,4v4h-4c-2.2109,0-4,1.791-4,4s1.7891,4,4,4h4v4   c0,2.209,1.7891,4,4,4s4-1.791,4-4v-4h4c2.2109,0,4-1.791,4-4S182.2109,88,180,88z" fill="#FAE6F5"/><path d="M220,88h-4v-4c0-2.209-1.7891-4-4-4s-4,1.791-4,4v4h-4c-2.2109,0-4,1.791-4,4s1.7891,4,4,4h4v4   c0,2.209,1.7891,4,4,4s4-1.791,4-4v-4h4c2.2109,0,4-1.791,4-4S222.2109,88,220,88z" fill="#FAE6F5"/><path d="M20,128h-4v-4c0-2.2109-1.7891-4-4-4s-4,1.7891-4,4v4H4c-2.2109,0-4,1.7891-4,4s1.7891,4,4,4h4v4   c0,2.2109,1.7891,4,4,4s4-1.7891,4-4v-4h4c2.2109,0,4-1.7891,4-4S22.2109,128,20,128z" fill="#FAE6F5"/><path d="M60,128h-4v-4c0-2.2109-1.7891-4-4-4s-4,1.7891-4,4v4h-4c-2.2109,0-4,1.7891-4,4s1.7891,4,4,4h4v4   c0,2.2109,1.7891,4,4,4s4-1.7891,4-4v-4h4c2.2109,0,4-1.7891,4-4S62.2109,128,60,128z" fill="#FAE6F5"/><path d="M100,128h-4v-4c0-2.2109-1.7891-4-4-4s-4,1.7891-4,4v4h-4c-2.2109,0-4,1.7891-4,4s1.7891,4,4,4h4v4   c0,2.2109,1.7891,4,4,4s4-1.7891,4-4v-4h4c2.2109,0,4-1.7891,4-4S102.2109,128,100,128z" fill="#FAE6F5"/><path d="M140,128h-4v-4c0-2.2109-1.7891-4-4-4s-4,1.7891-4,4v4h-4c-2.2109,0-4,1.7891-4,4s1.7891,4,4,4h4v4   c0,2.2109,1.7891,4,4,4s4-1.7891,4-4v-4h4c2.2109,0,4-1.7891,4-4S142.2109,128,140,128z" fill="#FAE6F5"/><path d="M180,128h-4v-4c0-2.2109-1.7891-4-4-4s-4,1.7891-4,4v4h-4c-2.2109,0-4,1.7891-4,4s1.7891,4,4,4h4v4   c0,2.2109,1.7891,4,4,4s4-1.7891,4-4v-4h4c2.2109,0,4-1.7891,4-4S182.2109,128,180,128z" fill="#FAE6F5"/><path d="M220,128h-4v-4c0-2.2109-1.7891-4-4-4s-4,1.7891-4,4v4h-4c-2.2109,0-4,1.7891-4,4s1.7891,4,4,4h4v4   c0,2.2109,1.7891,4,4,4s4-1.7891,4-4v-4h4c2.2109,0,4-1.7891,4-4S222.2109,128,220,128z" fill="#FAE6F5"/><path d="M20,168h-4v-4c0-2.2109-1.7891-4-4-4s-4,1.7891-4,4v4H4c-2.2109,0-4,1.7891-4,4s1.7891,4,4,4h4v4   c0,2.2109,1.7891,4,4,4s4-1.7891,4-4v-4h4c2.2109,0,4-1.7891,4-4S22.2109,168,20,168z" fill="#FAE6F5"/><path d="M60,168h-4v-4c0-2.2109-1.7891-4-4-4s-4,1.7891-4,4v4h-4c-2.2109,0-4,1.7891-4,4s1.7891,4,4,4h4v4   c0,2.2109,1.7891,4,4,4s4-1.7891,4-4v-4h4c2.2109,0,4-1.7891,4-4S62.2109,168,60,168z" fill="#FAE6F5"/><path d="M100,168h-4v-4c0-2.2109-1.7891-4-4-4s-4,1.7891-4,4v4h-4c-2.2109,0-4,1.7891-4,4s1.7891,4,4,4h4v4   c0,2.2109,1.7891,4,4,4s4-1.7891,4-4v-4h4c2.2109,0,4-1.7891,4-4S102.2109,168,100,168z" fill="#FAE6F5"/><path d="M140,168h-4v-4c0-2.2109-1.7891-4-4-4s-4,1.7891-4,4v4h-4c-2.2109,0-4,1.7891-4,4s1.7891,4,4,4h4v4   c0,2.2109,1.7891,4,4,4s4-1.7891,4-4v-4h4c2.2109,0,4-1.7891,4-4S142.2109,168,140,168z" fill="#FAE6F5"/><path d="M180,168h-4v-4c0-2.2109-1.7891-4-4-4s-4,1.7891-4,4v4h-4c-2.2109,0-4,1.7891-4,4s1.7891,4,4,4h4v4   c0,2.2109,1.7891,4,4,4s4-1.7891,4-4v-4h4c2.2109,0,4-1.7891,4-4S182.2109,168,180,168z" fill="#FAE6F5"/><path d="M220,168h-4v-4c0-2.2109-1.7891-4-4-4s-4,1.7891-4,4v4h-4c-2.2109,0-4,1.7891-4,4s1.7891,4,4,4h4v4   c0,2.2109,1.7891,4,4,4s4-1.7891,4-4v-4h4c2.2109,0,4-1.7891,4-4S222.2109,168,220,168z" fill="#FAE6F5"/><path d="M20,208h-4v-4c0-2.2109-1.7891-4-4-4s-4,1.7891-4,4v4H4c-2.2109,0-4,1.7891-4,4s1.7891,4,4,4h4v4   c0,2.2109,1.7891,4,4,4s4-1.7891,4-4v-4h4c2.2109,0,4-1.7891,4-4S22.2109,208,20,208z" fill="#FAE6F5"/><path d="M60,208h-4v-4c0-2.2109-1.7891-4-4-4s-4,1.7891-4,4v4h-4c-2.2109,0-4,1.7891-4,4s1.7891,4,4,4h4v4   c0,2.2109,1.7891,4,4,4s4-1.7891,4-4v-4h4c2.2109,0,4-1.7891,4-4S62.2109,208,60,208z" fill="#FAE6F5"/><path d="M100,208h-4v-4c0-2.2109-1.7891-4-4-4s-4,1.7891-4,4v4h-4c-2.2109,0-4,1.7891-4,4s1.7891,4,4,4h4v4   c0,2.2109,1.7891,4,4,4s4-1.7891,4-4v-4h4c2.2109,0,4-1.7891,4-4S102.2109,208,100,208z" fill="#FAE6F5"/><path d="M140,208h-4v-4c0-2.2109-1.7891-4-4-4s-4,1.7891-4,4v4h-4c-2.2109,0-4,1.7891-4,4s1.7891,4,4,4h4v4   c0,2.2109,1.7891,4,4,4s4-1.7891,4-4v-4h4c2.2109,0,4-1.7891,4-4S142.2109,208,140,208z" fill="#FAE6F5"/><path d="M180,208h-4v-4c0-2.2109-1.7891-4-4-4s-4,1.7891-4,4v4h-4c-2.2109,0-4,1.7891-4,4s1.7891,4,4,4h4v4   c0,2.2109,1.7891,4,4,4s4-1.7891,4-4v-4h4c2.2109,0,4-1.7891,4-4S182.2109,208,180,208z" fill="#FAE6F5"/><path d="M220,208h-4v-4c0-2.2109-1.7891-4-4-4s-4,1.7891-4,4v4h-4c-2.2109,0-4,1.7891-4,4s1.7891,4,4,4h4v4   c0,2.2109,1.7891,4,4,4s4-1.7891,4-4v-4h4c2.2109,0,4-1.7891,4-4S222.2109,208,220,208z" fill="#FAE6F5"/></g><g><path d="M181.8241,2.5h-132c-22.0547,0-40,17.9453-40,40.002V174.5c0,22.0547,17.9453,40,40,40h132   c22.0547,0,40-17.9453,40-40V42.502C221.8241,20.4453,203.8788,2.5,181.8241,2.5z" fill="#643458"/><path d="M213.8241,174.5c0,17.6445-14.3555,32-32,32h-132c-17.6445,0-32-14.3555-32-32V42.502   c0-17.6465,14.3555-32.002,32-32.002h132c17.6445,0,32,14.3555,32,32.002V174.5z" fill="#FDCA8D"/><path d="M177.7967,22.5h-7.9727h-108h-7.9727c-13.25,0-24.0273,10.7793-24.0273,24.0273v123.9453   c0,13.25,10.7773,24.0273,24.0273,24.0273h123.9453c13.25,0,24.0273-10.7773,24.0273-24.0273V46.5273   C201.8241,33.2793,191.0467,22.5,177.7967,22.5z" fill="#643458"/><path d="M165.8241,30.5v153.8438l-48.375-21.5c-0.5195-0.2305-1.0703-0.3438-1.625-0.3438   s-1.1055,0.1133-1.625,0.3438l-48.375,21.5V30.5H165.8241z" fill="#FDCA8D"/><polygon fill="#ED5175" points="150.9723,186.5 80.6759,186.5 115.8241,170.8789  "/><path d="M37.8241,170.4727V46.5273c0-8.8379,7.1914-16.0273,16.0273-16.0273h3.9727v156h-3.9727   C45.0155,186.5,37.8241,179.3086,37.8241,170.4727z" fill="#ED5175"/><path d="M193.8241,170.4727c0,8.8359-7.1914,16.0273-16.0273,16.0273h-3.9727v-156h3.9727   c8.8359,0,16.0273,7.1895,16.0273,16.0273V170.4727z" fill="#ED5175"/><path d="M97.2616,90.5312l-3.0117,17.5625c-0.2578,1.5,0.3594,3.0156,1.5898,3.9102   c1.2383,0.8984,2.875,1.0195,4.2109,0.3047l15.7734-8.2891l15.7734,8.2891c0.582,0.3086,1.2227,0.4609,1.8594,0.4609   c0.8281,0,1.6562-0.2578,2.3516-0.7656c1.2305-0.8945,1.8477-2.4102,1.5898-3.9102l-3.0117-17.5625l12.7617-12.4355   c1.0898-1.0645,1.4805-2.6523,1.0117-4.1016c-0.4727-1.4473-1.7227-2.5039-3.2305-2.7227l-17.6328-2.5625L119.41,52.7305   c-1.3438-2.7305-5.8281-2.7305-7.1719,0l-7.8867,15.9785l-17.6328,2.5625c-1.5078,0.2188-2.7578,1.2754-3.2305,2.7227   c-0.4688,1.4492-0.0781,3.0371,1.0117,4.1016L97.2616,90.5312z" fill="#643458"/><path d="M107.5819,76.3242c1.3047-0.1895,2.4297-1.0078,3.0117-2.1895l5.2305-10.5957l5.2305,10.5957   c0.582,1.1816,1.707,2,3.0117,2.1895l11.6914,1.6992l-8.4609,8.2461c-0.9414,0.9199-1.3711,2.2441-1.1484,3.541l1.9961,11.6465   l-10.4609-5.498c-0.582-0.3066-1.2188-0.459-1.8594-0.459s-1.2773,0.1523-1.8594,0.459l-10.4609,5.498l1.9961-11.6465   c0.2227-1.2969-0.207-2.6211-1.1484-3.541l-8.4609-8.2461L107.5819,76.3242z" fill="#FDCA8D"/></g></svg>